# xmcd CD database file
#
# Track frame offsets:
#	150
#	12490
#	27529
#	40684
#	47916
#	60458
#	70591
#	82422
#	95114
#	108245
#	120027
#	121860
#
# Disc length: 2021 seconds
#
# Revision: 5
# Processed by: cddbd v1.5.2PL0 Copyright (c) Steve Scherf et al.
# Submitted via: CDex 1.51
#
DISCID=9a07e30c
DTITLE=Los High Tops - Texas Radio
DYEAR=2008
DGENRE=Rockabilly
TTITLE0=Texas Radio
TTITLE1=Honey Baby Sugar
TTITLE2=Santa Fe Wind
TTITLE3=Hotwire
TTITLE4=Lemon Drop
TTITLE5=Death Agent 13
TTITLE6=Drag Baby Drag
TTITLE7=Hep Cat Jump
TTITLE8=Wally (Everything)
TTITLE9=Betsy Stroll
TTITLE10=Goodbye
TTITLE11=PipeGunnerLou
EXTD=YEAR: 2008
EXTT0=
EXTT1=
EXTT2=
EXTT3=
EXTT4=
EXTT5=
EXTT6=
EXTT7=
EXTT8=
EXTT9=
EXTT10=
EXTT11=
PLAYORDER=
